<?xml version="1.0" encoding="utf-8"?>
<svg version="1.1" id="Cupcake" xmlns:x="&ns_extend;" xmlns:i="&ns_ai;" xmlns:graph="&ns_graphs;" xmlns="http://www.w3.org/2000/svg" xmlns:xlink="http://www.w3.org/1999/xlink" x="0px" y="0px" viewBox="201 187 100 125">
    <style type="text/css">
        .st0 {
            fill: #E8C0D9;
        }
        .st1 {
            fill: none;
            stroke: #9B718B;
            stroke-width: 3;
            stroke-miterlimit: 10;
        }
        .st2 {
            opacity: 0.61;
            fill: #9B718B;
        }
        .st3 {
            fill: #9B718B;
        }
        .st4 {
            fill: #F5ECB3;
        }
        .st5 {
            fill: #BAB69E;
        }
        .st6 {
            fill: #E71D73;
        }
		{% if recipe %}
        #cupcake{{recipe._id}} .st0 {
            fill: #{{recipe.color}}
        };
        #cupcake{{recipe._id}} .st1 {
            fill: none;
            stroke: {{recipe.color}};
            stroke-width: 3;
            stroke-miterlimit: 10;
        }
		{% endif %}


    </style>
    <switch>
        <g i:extraneous="self">
			{% if recipe %}
            <g id="cupcake{{ recipe._id }}">
			{% else %}
            <g id="cupcake">
			{% endif %}
                <g id="flotty">
                    <path class="st0" d="M278.5,229.5c-0.2-0.1-0.5-0.1-0.7-0.2c0.1-0.2,0.1-0.4,0.2-0.6c4.2-12.7-5.8-18.5-11.9-20.9
                                                                        					c-1-0.4-2.4-0.8-4.1-1.1c-1.1-4.6-4.6-10.3-12.5-18.5c0.5,8.7-6.4,15.3-16.1,20.2c-1.3,0.4-2.6,0.9-3.7,1.5
                                                                        					c-1.5,0.7-2.9,1.5-4.3,2.3c-9.2,4.7-15.3,10.4-15.3,17.8c0,1.8,0.2,3.7,0.5,5.4c0,0.1,0,0.1,0,0.2c0.1,1,0.4,1.9,0.7,2.7
                                                                        					c0.4,1.3,1,2.6,1.7,3.7c-0.2,0.2-0.4,0.3-0.6,0.5c-7.6,6.4-9.6,14.4-8.1,22.1c10.6-1.6,24.7,1.2,45.1,0
                                                                        					c23.1-1.4,31.6-0.8,44.3,0.1c1-1.6,1.8-3.3,2.5-5.2C303.5,241.5,292.4,233.8,278.5,229.5z"/>
                    <path class="st1" d="M262.1,207.3c6.4,1.6,20.1,8.8,15.8,21.4c-0.1,0.2-0.1,0.4-0.2,0.6c0.2,0.1,0.5,0.2,0.7,0.2
                                                                        					c14,4.2,25.1,12,17.9,30c-0.7,1.8-1.6,3.5-2.5,5.2"/>
                    <path class="st1" d="M204.4,264.6c-1.6-7.8,0.5-15.7,8.1-22.1"/>
                    <path class="st2" d="M278.5,229.5c14,4.2,25.1,12,17.9,30c-0.7,1.8-1.6,3.5-2.5,5.2l-15.6-4.6c0,0,2.2-5.8-0.6-12.3
                                                                        					c-3.7-8.6-8.7-10.6-8.7-10.6c4.3-8.4,8.9-19.7-7.3-26.8c-1.2-8,20.6,5.7,16.4,18.3"/>
                    <g>
                        <path class="st3" d="M246.5,229c10.1-3.7,15.9-14.4,12.9-24.8c-1.8-6.1-5.9-10.8-10.4-15.2c0,0,1.4-0.8,1.4-0.8
                                                                        						c1.1,5.9-2,11.8-6.6,15.3c-4.4,3.6-9.7,6-14.6,8.4c-4.8,2.4-9,6-12.1,10.1c-6.3,8.5-8.5,19.2,3.4,23.6
                                                                        						c10,3.3,21.4,3.4,31.6,0.5c5.2-1.5,10.1-4.1,14.4-7.6c0.2-0.1,0.5-0.1,0.6,0.1c0.1,0.2,0.1,0.4,0,0.6
                                                                        						c-10,10.3-25.5,13.8-39.5,12.2c-9-0.8-19.9-5-20.4-15.5c-0.3-6.3,2.4-12.3,6.5-16.7c4.1-4.3,9.2-7.3,14.4-9.6
                                                                        						c5.1-2.1,10.2-4.2,14.5-7.5c4.3-3.2,7.2-8.2,6.1-13.6c-0.2-0.7,0.8-1.3,1.4-0.8c10.2,6.7,16.7,19,10.9,30.9
                                                                        						c-2.7,5.6-8.2,9.7-14.3,10.9C246.3,229.5,246.2,229.1,246.5,229L246.5,229z"/>
                    </g>
                </g>
                <g id="cup">
                    <path id="main_fill" class="st4" d="M249.5,310.8c-28.9,0-33.3-3.9-33.3-3.9c-3.2-7.9-6.1-16.6-8.8-26.2l-5.1-18.5
                                                                        					c0,0,8.7-4.3,10.9,2.4c-0.2-4.5,6.4-4.4,10.2-4.4c3.8-0.1,5.8-0.3,7.4,4.4c0.5-4.7,6.4-4.6,10.3-4.7c4-0.1,8-0.2,8.3,4.7
                                                                        					c1.1-4.8,5-4.8,8.8-4.8c3.9-0.1,9.8-0.1,10.2,4.8c1.3-4.5,3.3-4.4,7.3-4.6c4.3-0.2,10.7-0.4,10.7,4.6c2.5-6.7,7-3.2,10.2-2.4
                                                                        					l-5.1,18.5c-2.6,9.6-5.6,18.3-8.8,26.2C282.8,306.9,276.1,310.8,249.5,310.8z"/>
                    <path id="shadow_00000126283164033551199830000013825487038520359576_" class="st5" d="M279,259.7c0,0-2.7,48.3-15.5,50.8
                                                                        					c7.3-0.4,19.1-1.7,20.2-8c3.2-9.1,14-40.3,14-40.3s-10-5.3-10.3,2.7C284.5,261.2,285,259.1,279,259.7z"/>
                    <g id="outline">
                        <path class="st3" d="M297.1,260.9c-0.6-0.1-1.2-0.4-1.8-0.6c-2-0.8-4.4-1.7-6.6-0.2c-0.6,0.4-1.2,1-1.7,1.7
                                                                        						c-1.9-3.4-7.7-3.1-11-3l-0.5,0c-3,0.1-5.2,0.2-6.7,2.8c-2-3.3-7.1-3.2-10.3-3.2l-0.3,0c-3.1,0-6.5,0.1-8.4,3
                                                                        						c-1.6-3-5.4-2.9-8.6-2.8l-0.5,0c-3.3,0.1-8,0.1-9.9,3.1c-1.7-3-4-2.9-6.9-2.9l-0.9,0c-3.5,0.1-8.3,0.1-10,2.9
                                                                        						c-0.4-0.5-0.9-0.9-1.5-1.3c-3.9-2.4-9.4,0.3-9.6,0.4c-0.4,0.2-0.6,0.7-0.4,1.3l5.2,18.5c2.7,9.6,5.7,18.4,8.9,26.3
                                                                        						c0.1,0.1,0.2,0.3,0.3,0.4c0.5,0.4,5.5,4.1,33.7,4.1c26.4,0,33.3-3.9,33.6-4c0.2-0.1,0.3-0.3,0.4-0.5c3.2-7.9,6.2-16.7,8.9-26.3
                                                                        						l5.2-18.5C297.8,261.6,297.6,261,297.1,260.9z M290.7,280.6c-2.1,7.9-4.5,15.2-7,22c-1,2.6-3.2,4.6-6,5.2
                                                                        						c-4.7,1.1-13.3,2.3-28.2,2.3c-15.3,0-23.7-1.1-28.1-2.1c-2.7-0.6-5-2.6-5.9-5.2c-2.5-6.8-4.9-14.2-7.1-22.2l-4.8-17.6
                                                                        						c1.7-0.7,5.1-1.6,7.2-0.3c0.7,0.5,1.3,1.2,1.6,2.1c0,0.1,0,0.1,0.1,0.2l0,0l2.6,7.4c0.1,0.4,0.6,0.3,0.6-0.1l-1.3-7.7
                                                                        						c-0.1-3.1,5.7-3.2,8.8-3.3l0.9,0c3.5-0.1,4.6-0.1,5.9,3.5l1.4,7.4c0.1,0.5,0.7,0.5,0.7,0l-0.2-7.4c0.4-3.5,5.3-3.6,8.9-3.6
                                                                        						l0.5,0c4.8-0.1,7.1,0.2,7.3,3.5c0,0.1,0,0.1,0,0.2l0,0l0.7,6.4c0,0.4,0.5,0.4,0.5,0l0.7-6.4l0,0c0.9-3.5,3.4-3.8,7.6-3.9l0.2,0
                                                                        						c4.3-0.1,8.9,0.2,9.2,3.8l-0.3,6.5c0,0.6,0.8,0.7,0.9,0l1.3-6.4l0,0c1-3.4,2.1-3.4,5.8-3.6l0.5,0c3.4-0.2,9.7-0.5,9.8,3.5
                                                                        						l-1.1,6.5c-0.1,0.4,0.4,0.5,0.5,0.1l2.4-6.4l0-0.1c0.5-1.3,1.1-2.2,1.8-2.7c1.4-0.9,3.3-0.2,5,0.5c0.4,0.1,0.8,0.3,1.2,0.4
                                                                        						L290.7,280.6z"/>
                    </g>
                </g>
                <path id="eye" class="st3" d="M236.3,282.6c0.1,3.3-2,6.2-4.9,6.3c-2.8,0.1-5.3-2.5-5.4-5.8c-0.1-3.3,1.6-6.3,4.9-6.3
                                                            				C233.8,276.7,236.1,279.2,236.3,282.6z"/>

                <ellipse id="blush" transform="matrix(0.9991 -4.291638e-02 4.291638e-02 0.9991 -12.351 10.2078)" class="st0" cx="231.6" cy="292.8" rx="5.2" ry="1.8"/>
                <path id="eye_00000005263726177630006020000016025863483757676187_" class="st3" d="M258.9,284c-0.9-0.7,2.5-4.2,6.8-4.7
                                                            				c4.1-0.5,8.1,2.7,7.2,3.4c-0.9,0.7-3.1-1.7-7-1.4C261.6,281.7,259.7,284.6,258.9,284z"/>
                <g id="mouth">
                    <path class="st3" d="M256.6,294.3c0,4.5-3.2,8.2-7.1,8.2s-7.1-3.7-7.1-8.2s0,0,7.1,0S256.6,289.8,256.6,294.3z"/>
                    <path class="st6" d="M251.2,299.1C251.2,299.2,251.2,299.2,251.2,299.1c-0.4,2.4-3.5,3.2-5.3,1.5c-2.1-2-3.5-5.6-2.6-5.9
                                                            					c2.9,0.2,0.6,2,6.5,2.8C249.9,297.5,251.4,297.7,251.2,299.1z"/>
                </g>
            </g>
        </g>
    </switch>
</svg>
